<svg width="102" height="21" viewBox="0 0 102 21" fill="none" xmlns="http://www.w3.org/2000/svg">
<path d="M10.492 0.247009H10.491C4.83176 0.247009 0.244019 4.83475 0.244019 10.494V10.495C0.244019 16.1543 4.83176 20.742 10.491 20.742H10.492C16.1513 20.742 20.739 16.1543 20.739 10.495V10.494C20.739 4.83475 16.1513 0.247009 10.492 0.247009Z" fill="#371B1B"/>
<mask id="mask0_1_202" style="mask-type:alpha" maskUnits="userSpaceOnUse" x="0" y="0" width="21" height="21">
<path d="M16.299 0.247009H4.68402C2.23187 0.247009 0.244019 2.23486 0.244019 4.68701V16.302C0.244019 18.7542 2.23187 20.742 4.68402 20.742H16.299C18.7512 20.742 20.739 18.7542 20.739 16.302V4.68701C20.739 2.23486 18.7512 0.247009 16.299 0.247009Z" fill="white"/>
</mask>
<g mask="url(#mask0_1_202)">
<path d="M16.302 0.247009H4.68102C2.23053 0.247009 0.244019 2.23352 0.244019 4.68401V16.305C0.244019 18.7555 2.23053 20.742 4.68102 20.742H16.302C18.7525 20.742 20.739 18.7555 20.739 16.305V4.68401C20.739 2.23352 18.7525 0.247009 16.302 0.247009Z" fill="#4840BB"/>
<path fill-rule="evenodd" clip-rule="evenodd" d="M16.132 15.567V15.535C16.1183 15.5151 16.1014 15.4975 16.082 15.483C13.621 13.53 13.931 9.44401 14.63 5.65201C14.658 5.49901 14.677 5.39701 14.552 5.38201C13.757 5.29201 11.107 5.71301 10.346 5.91501C10.148 5.96801 10.131 6.02401 10.127 6.14501C9.91899 13.737 14.715 15.326 16.017 15.573C16.047 15.579 16.113 15.586 16.132 15.567ZM9.20799 8.27701C8.23199 8.46201 7.32799 8.82301 6.54599 9.14701C6.47699 9.16701 6.36699 9.28101 6.39599 9.42201C6.70399 10.956 8.20799 15.28 13.959 15.617C14.092 15.623 14.225 15.599 14.121 15.537C13.345 14.957 10.587 14.36 9.45999 8.49501C9.44799 8.43501 9.44999 8.20701 9.20799 8.27701ZM6.44799 11.877C6.10599 12.078 5.22199 12.642 4.90499 12.933C4.84299 12.99 4.85499 13.031 4.88199 13.129C5.13799 14.037 6.64799 15.629 10.398 15.505C10.575 15.499 10.576 15.446 10.483 15.38C10.423 15.336 9.23799 14.966 8.15399 13.996C7.61199 13.51 7.06099 12.773 6.69099 12.072C6.59899 11.88 6.55199 11.816 6.44799 11.877Z" fill="white"/>
</g>
<mask id="mask1_1_202" style="mask-type:alpha" maskUnits="userSpaceOnUse" x="4" y="5" width="13" height="11">
<path fill-rule="evenodd" clip-rule="evenodd" d="M16.132 15.567V15.535C16.1183 15.5151 16.1014 15.4975 16.082 15.483C13.621 13.53 13.931 9.44401 14.63 5.65201C14.658 5.49901 14.677 5.39701 14.552 5.38201C13.757 5.29201 11.107 5.71301 10.346 5.91501C10.148 5.96801 10.131 6.02401 10.127 6.14501C9.91899 13.737 14.715 15.326 16.017 15.573C16.047 15.579 16.113 15.586 16.132 15.567ZM9.20799 8.27701C8.23199 8.46201 7.32799 8.82301 6.54599 9.14701C6.47699 9.16701 6.36699 9.28101 6.39599 9.42201C6.70399 10.956 8.20799 15.28 13.959 15.617C14.092 15.623 14.225 15.599 14.121 15.537C13.345 14.957 10.587 14.36 9.45999 8.49501C9.44799 8.43501 9.44999 8.20701 9.20799 8.27701ZM6.44799 11.877C6.10599 12.078 5.22199 12.642 4.90499 12.933C4.84299 12.99 4.85499 13.031 4.88199 13.129C5.13799 14.037 6.64799 15.629 10.398 15.505C10.575 15.499 10.576 15.446 10.483 15.38C10.423 15.336 9.23799 14.966 8.15399 13.996C7.61199 13.51 7.06099 12.773 6.69099 12.072C6.59899 11.88 6.55199 11.816 6.44799 11.877Z" fill="white"/>
</mask>
<g mask="url(#mask1_1_202)">
</g>
<path d="M27.5942 11.5347L27.7446 12.5659L27.9648 11.6367L29.5117 6.17969H30.3818L31.8911 11.6367L32.106 12.582L32.2725 11.5293L33.4863 6.17969H34.5229L32.627 14H31.687L30.0757 8.30127L29.9521 7.70508L29.8286 8.30127L28.1582 14H27.2183L25.3276 6.17969H26.3589L27.5942 11.5347ZM40.0928 10.3853H36.7036V13.1567H40.6406V14H35.6724V6.17969H40.5869V7.02832H36.7036V9.54199H40.0928V10.3853ZM46.2427 11.959H42.9663L42.2305 14H41.167L44.1533 6.17969H45.0557L48.0474 14H46.9893L46.2427 11.959ZM43.2778 11.1104H45.9365L44.6045 7.45264L43.2778 11.1104ZM50.1367 13.1567H53.8428V14H49.1001V6.17969H50.1367V13.1567ZM58.9399 7.02832H56.4263V14H55.4004V7.02832H52.8921V6.17969H58.9399V7.02832ZM66.1104 14H65.0737V10.3853H61.1313V14H60.1001V6.17969H61.1313V9.54199H65.0737V6.17969H66.1104V14ZM72.2549 10.5464H68.9731V14H67.9419V6.17969H72.7866V7.02832H68.9731V9.70312H72.2549V10.5464ZM76.8901 10.8364H75.0532V14H74.0166V6.17969H76.6055C77.4863 6.17969 78.1631 6.38021 78.6357 6.78125C79.112 7.18229 79.3501 7.76595 79.3501 8.53223C79.3501 9.01921 79.2176 9.44352 78.9526 9.80518C78.6912 10.1668 78.326 10.4372 77.8569 10.6162L79.6938 13.9355V14H78.5874L76.8901 10.8364ZM75.0532 9.99316H76.6377C77.1497 9.99316 77.5562 9.86068 77.8569 9.5957C78.1613 9.33073 78.3135 8.97624 78.3135 8.53223C78.3135 8.04883 78.1685 7.67822 77.8784 7.42041C77.592 7.1626 77.1766 7.0319 76.6323 7.02832H75.0532V9.99316ZM86.8159 10.3423C86.8159 11.1086 86.687 11.7782 86.4292 12.3511C86.1714 12.9204 85.8062 13.3555 85.3335 13.6562C84.8608 13.957 84.3094 14.1074 83.6792 14.1074C83.0633 14.1074 82.5173 13.957 82.041 13.6562C81.5648 13.3519 81.1942 12.9204 80.9292 12.3618C80.6678 11.7996 80.5335 11.1497 80.5264 10.4121V9.84814C80.5264 9.09619 80.6571 8.43197 80.9185 7.85547C81.1799 7.27897 81.5487 6.83854 82.0249 6.53418C82.5047 6.22624 83.0526 6.07227 83.6685 6.07227C84.2951 6.07227 84.8465 6.22445 85.3228 6.52881C85.8026 6.82959 86.1714 7.26823 86.4292 7.84473C86.687 8.41764 86.8159 9.08545 86.8159 9.84814V10.3423ZM85.79 9.8374C85.79 8.90999 85.6038 8.19922 85.2314 7.70508C84.859 7.20736 84.3381 6.9585 83.6685 6.9585C83.0168 6.9585 82.5029 7.20736 82.127 7.70508C81.7546 8.19922 81.563 8.88672 81.5522 9.76758V10.3423C81.5522 11.241 81.7402 11.9482 82.1162 12.4639C82.4958 12.9759 83.0168 13.2319 83.6792 13.2319C84.3452 13.2319 84.8608 12.9902 85.2261 12.5068C85.5913 12.0199 85.7793 11.3234 85.79 10.4175V9.8374ZM94.373 14H93.3364L89.3994 7.97363V14H88.3628V6.17969H89.3994L93.3472 12.2329V6.17969H94.373V14ZM101.447 7.02832H98.9331V14H97.9072V7.02832H95.3989V6.17969H101.447V7.02832Z" fill="black"/>
</svg>
